{"title":"[Dhamal Rip] Swaha (2010) Repack DVD Rip [Dare DEvils]","uid":5453773,"size":933858884,"categoryP":"video","categoryS":"movies","magnet":"?xt=urn:btih:54863ff4d6268f7130000d43050ab5fccfdbbf56&amp;dn=%5BDhamal+Rip%5D+Swaha+%282010%29+Repack+DVD+Rip+%5BDare+DEvils%5D&amp;tr=udp%3A%2F%2Ftracker.openbittorrent.com%3A80&amp;tr=udp%3A%2F%2Fopen.demonii.com%3A1337&amp;tr=udp%3A%2F%2Ftracker.coppersurfer.tk%3A6969&amp;tr=udp%3A%2F%2Fexodus.desync.com%3A6969","seeders":2,"leechers":0,"uploader":"luvwithromio","files":-1,"time":1269265980,"description":"Format                           : AVI\nFormat/Info                      : Audio Video Interleave\nFile size                        : 891 MiB\nDuration                         : 2h 38mn\nOverall bit rate                 : 787 Kbps\n\nVideo\nID                               : 0\nFormat                           : MPEG-4 Visual\nFormat profile                   : Simple@L1\nFormat settings, BVOP            : No\nFormat settings, QPel            : No\nFormat settings, GMC             : No warppoints\nFormat settings, Matrix          : Default (H.263)\nCodec ID                         : DX50\nCodec ID/Hint                    : DivX 5\nDuration                         : 2h 38mn\nBit rate                         : 648 Kbps\nWidth                            : 640 pixels\nHeight                           : 240 pixels\nDisplay aspect ratio             : 2.667\nFrame rate                       : 23.976 fps\nResolution                       : 8 bits\nColorimetry                      : 4:2:0\nScan type                        : Progressive\nBits/(Pixel*Frame)               : 0.176\nStream size                      : 734 MiB (82%)\nWriting library                  : Lavc51.40.4\n\nAudio\nID                               : 1\nFormat                           : AC-3\nFormat/Info                      : Audio Coding 3\nCodec ID                         : 2000\nDuration                         : 2h 38mn\nBit rate mode                    : Constant\nBit rate                         : 128 Kbps\nChannel(s)                       : 6 channels\nChannel positions                : Front: L C R, Surround: L R, LFE\nSampling rate                    : 48.0 KHz\nResolution                       : 16 bits\nStream size                      : 145 MiB (16%)\nAlignment                        : Aligned on interleaves\nInterleave, duration             : 32 ms (0.77 video frame)","torrent":{"xt":"urn:btih:54863ff4d6268f7130000d43050ab5fccfdbbf56","amp;dn":"%5BDhamal+Rip%5D+Swaha+%282010%29+Repack+DVD+Rip+%5BDare+DEvils%5D","amp;tr":["udp%3A%2F%2Ftracker.openbittorrent.com%3A80","udp%3A%2F%2Fopen.demonii.com%3A1337","udp%3A%2F%2Ftracker.coppersurfer.tk%3A6969","udp%3A%2F%2Fexodus.desync.com%3A6969"],"infoHash":"54863ff4d6268f7130000d43050ab5fccfdbbf56","infoHashBuffer":{"type":"Buffer","data":[84,134,63,244,214,38,143,113,48,0,13,67,5,10,181,252,207,219,191,86]},"announce":[],"urlList":[]}}